#!OML:ASF E:\Style6\Style6.ASF
:FULLY-SPECIFIED
:DEGREES
3243
root 0.619332 17.2474 1.30391 13.2015 -7.01031 -3.00465
lowerback 3.85746 -1.56444 2.55294
upperback -6.09577 -1.74 2.309
thorax -8.58591 -0.937163 1.2049
lowerneck -9.47649 -9.4757 1.09502
upperneck 3.234 -12.5934 -3.14239
head 2.36899 -6.36388 -1.78574
rclavicle -8.63471e-015 2.98177e-014
rhumerus -78.3578 17.4006 -92.7592
rradius 119.961
rwrist -18.6833
rhand 35.2679 -0.190062
rfingers 7.12502
rthumb 58.3703 -15.5745
lclavicle -8.63471e-015 2.98177e-014
lhumerus -86.3037 -33.33 108.477
lradius 118.244
lwrist 53.0559
lhand 1.11088 40.9861
lfingers 7.12502
lthumb 26.654 69.1297
rfemur -32.2827 -7.35798 21.5216
rtibia 42.6077
rfoot -15.4066 1.4196
rtoes -12.7123
lfemur -29.0121 11.8061 -17.6953
ltibia 45.0558
lfoot -20.9391 5.01845
ltoes -19.5868
3244
root 0.610543 17.2411 1.2897 13.2955 -6.96011 -3.02259
lowerback 3.90143 -1.56911 2.59263
upperback -6.21655 -1.73963 2.28691
thorax -8.74601 -0.941208 1.16518
lowerneck -9.32401 -9.51506 1.07727
upperneck 3.35279 -12.6413 -3.1623
head 2.3796 -6.38792 -1.78646
rclavicle -1.89591e-014 -1.59028e-015
rhumerus -77.5896 17.5575 -93.1457
rradius 119.315
rwrist -18.8815
rhand 36.6819 -0.166849
rfingers 7.12502
rthumb 59.5924 -14.3681
lclavicle -1.89591e-014 -1.59028e-015
lhumerus -86.4343 -34.108 109.067
lradius 118.018
lwrist 53.2242
lhand 1.62447 40.8721
lfingers 7.12502
lthumb 27.1454 68.9399
rfemur -32.4495 -7.2709 21.6013
rtibia 42.6137
rfoot -15.3687 1.29873
rtoes -12.5237
lfemur -29.2043 11.7598 -17.6522
ltibia 45.0573
lfoot -20.8579 4.98363
ltoes -19.4304
3245
root 0.602895 17.2429 1.28285 13.3117 -6.84145 -2.8912
lowerback 3.93647 -1.60067 2.49721
upperback -6.32795 -1.78904 2.24185
thorax -8.88662 -0.961503 1.18163
lowerneck -9.19545 -9.59864 1.06416
upperneck 3.55348 -12.7449 -3.23529
head 2.41683 -6.44159 -1.81206
rclavicle -1.80149e-015 -8.74653e-015
rhumerus -76.8754 17.7845 -93.5247
rradius 118.779
rwrist -19.0495
rhand 38.187 -0.28652
rfingers 7.12502
rthumb 60.876 -13.1131
lclavicle -1.80149e-015 -8.74653e-015
lhumerus -86.6669 -35.0044 109.757
lradius 117.864
lwrist 53.3309
lhand 2.03342 40.6521
lfingers 7.12502
lthumb 27.5365 68.6582
rfemur -32.4983 -7.36041 21.5149
rtibia 42.6377
rfoot -15.4014 1.25977
rtoes -12.1774
lfemur -29.27 11.6383 -17.7568
ltibia 45.0363
lfoot -20.8412 4.99668
ltoes -19.6023
3246
root 0.594572 17.2471 1.28217 13.3237 -6.67178 -2.76795
lowerback 3.86195 -1.62914 2.47223
upperback -6.41328 -1.83615 2.16514
thorax -8.93751 -0.986469 1.12012
lowerneck -9.13836 -9.71443 1.12293
upperneck 3.81478 -12.8954 -3.37288
head 2.47718 -6.5202 -1.87856
rclavicle 4.11546e-014 -7.15625e-015
rhumerus -76.265 18.0108 -93.918
rradius 118.415
rwrist -19.077
rhand 39.7617 -0.466592
rfingers 7.12502
rthumb 62.1974 -11.7125
lclavicle 4.11546e-014 -7.15625e-015
lhumerus -87.0035 -36.0488 110.444
lradius 117.813
lwrist 53.2489
lhand 2.76921 40.6572
lfingers 7.12502
lthumb 28.24 68.5491
rfemur -32.5061 -7.53584 21.4473
rtibia 42.671
rfoot -15.4903 1.25626
rtoes -12.1752
lfemur -29.2991 11.546 -17.8454
ltibia 45.0012
lfoot -20.8691 4.8999
ltoes -19.5656
3247
root 0.583766 17.245 1.27847 13.4287 -6.40399 -2.72808
lowerback 3.6756 -1.67082 2.52444
upperback -6.49331 -1.89751 2.11368
thorax -8.91879 -1.02276 1.03955
lowerneck -9.14919 -9.82342 1.14038
upperneck 4.07847 -13.0361 -3.42762
head 2.55942 -6.59166 -1.91755
rclavicle 5.80203e-015 -1.80894e-014
rhumerus -75.7181 18.3325 -94.3321
rradius 118.17
rwrist -18.765
rhand 40.9716 -0.523149
rfingers 7.12502
rthumb 63.1955 -10.4444
lclavicle 5.80203e-015 -1.80894e-014
lhumerus -87.3445 -37.1872 111.119
lradius 117.801
lwrist 53.1743
lhand 3.41452 40.9054
lfingers 7.12502
lthumb 28.8566 68.6938
rfemur -32.6157 -7.79536 21.5244
rtibia 42.7061
rfoot -15.5952 1.10864
rtoes -13.2077
lfemur -29.4648 11.4377 -17.8335
ltibia 44.9714
lfoot -20.8519 4.78373
ltoes -19.6513
3248
root 0.571129 17.2423 1.27312 13.4761 -6.09135 -2.63832
lowerback 3.57082 -1.75484 2.40826
upperback -6.56181 -2.02201 2.12185
thorax -8.9273 -1.0761 1.12555
lowerneck -9.23758 -9.89287 1.12242
upperneck 4.39329 -13.1195 -3.47772
head 2.67803 -6.63511 -1.95575
rclavicle 1.70209e-015 -1.96797e-014
rhumerus -75.2686 18.8406 -94.7429
rradius 118.013
rwrist -18.1158
rhand 41.8639 -0.386834
rfingers 7.12502
rthumb 63.9211 -9.26346
lclavicle 1.70209e-015 -1.96797e-014
lhumerus -87.8151 -38.2303 111.982
lradius 117.8
lwrist 53.4073
lhand 3.21483 41.0062
lfingers 7.12502
lthumb 28.6658 68.8269
rfemur -32.6708 -8.07479 21.5484
rtibia 42.7472
rfoot -15.6998 1.11033
rtoes -13.093
lfemur -29.6045 11.2835 -17.8468
ltibia 44.9794
lfoot -20.8355 4.70361
ltoes -19.739
3249
root 0.560818 17.2397 1.27031 13.4607 -5.88622 -2.61748
lowerback 3.54881 -1.81554 2.336
upperback -6.6027 -2.1076 2.14678
thorax -8.95536 -1.11236 1.20253
lowerneck -9.41301 -9.94851 1.12433
upperneck 4.74728 -13.187 -3.51596
head 2.82679 -6.66997 -2.00136
rclavicle 9.74666e-015 -4.77083e-015
rhumerus -74.9052 19.4131 -95.1362
rradius 117.959
rwrist -17.2122
rhand 42.6206 -0.248185
rfingers 7.12502
rthumb 64.5287 -8.19069
lclavicle 9.74666e-015 -4.77083e-015
lhumerus -88.4142 -39.2367 112.915
lradius 117.86
lwrist 53.8054
lhand 2.43374 41.124
lfingers 7.12502
lthumb 27.9193 69.0685
rfemur -32.6558 -8.23671 21.6027
rtibia 42.7924
rfoot -15.7775 1.04573
rtoes -13.2743
lfemur -29.6738 11.1822 -17.7916
ltibia 45.0393
lfoot -20.8801 4.49609
ltoes -19.1062
3250
root 0.551289 17.233 1.27035 13.4577 -5.77998 -2.66713
lowerback 3.473 -1.84057 2.34886
upperback -6.64909 -2.13998 2.17532
thorax -8.96094 -1.12833 1.22786
lowerneck -9.47449 -9.99986 1.20266
upperneck 4.98636 -13.2544 -3.6391
head 2.90419 -6.7069 -2.07175
rclavicle -5.64051e-015 3.61788e-014
rhumerus -74.6796 19.9704 -95.4901
rradius 118.043
rwrist -16.2635
rhand 43.2655 -0.216104
rfingers 7.12502
rthumb 65.0405 -7.32539
lclavicle -5.64051e-015 3.61788e-014
lhumerus -89.1673 -40.1222 113.806
lradius 117.947
lwrist 53.6983
lhand 1.8832 41.0766
lfingers 7.12502
lthumb 27.3929 69.1055
rfemur -32.6661 -8.35582 21.7172
rtibia 42.852
rfoot -15.8265 0.995276
rtoes -13.8612
lfemur -29.7352 11.1684 -17.6821
ltibia 45.1219
lfoot -20.9061 4.44323
ltoes -19.2159
3251
root 0.541042 17.2285 1.27055 13.4538 -5.60744 -2.72297
lowerback 3.45275 -1.8968 2.35721
upperback -6.74818 -2.20879 2.23831
thorax -9.05595 -1.16055 1.30069
lowerneck -9.45688 -10.0587 1.28728
upperneck 5.19356 -13.3298 -3.81162
head 2.95167 -6.74964 -2.15183
rclavicle 2.57022e-014 -3.10104e-014
rhumerus -74.7136 20.5399 -95.8206
rradius 118.256
rwrist -15.3833
rhand 43.5459 -0.260967
rfingers 7.12502
rthumb 65.2612 -6.99683
lclavicle 2.57022e-014 -3.10104e-014
lhumerus -90.104 -40.7507 114.713
lradius 118.128
lwrist 53.5365
lhand 1.26672 41.1668
lfingers 7.12502
lthumb 26.8031 69.2875
rfemur -32.672 -8.55762 21.8534
rtibia 42.9299
rfoot -15.8952 1.09188
rtoes -13.6027
lfemur -29.7988 11.1949 -17.5623
ltibia 45.22
lfoot -20.956 4.42251
ltoes -19.8725
3252
root 0.530712 17.2241 1.26787 13.3907 -5.42462 -2.70067
lowerback 3.54594 -1.97137 2.24961
upperback -6.84126 -2.30641 2.31425
thorax -9.20582 -1.19777 1.46009
lowerneck -9.51539 -10.1531 1.2228
upperneck 5.47094 -13.439 -3.89014
head 3.05372 -6.80824 -2.19035
rclavicle -5.98218e-015 -6.75868e-015
rhumerus -74.841 21.1198 -96.0368
rradius 118.454
rwrist -14.622
rhand 43.5665 -0.289366
rfingers 7.12502
rthumb 65.2774 -6.99745
lclavicle -5.98218e-015 -6.75868e-015
lhumerus -91.1241 -41.1718 115.611
lradius 118.469
lwrist 53.5321
lhand 0.32743 41.4922
lfingers 7.12502
lthumb 25.904 69.7475
rfemur -32.6571 -8.77197 21.8972
rtibia 43.0414
rfoot -15.9576 1.27195
rtoes -12.8562
lfemur -29.8279 11.1913 -17.5164
ltibia 45.333
lfoot -20.9732 4.39529
ltoes -20.4453
3253
root 0.519403 17.217 1.26694 13.2919 -5.30411 -2.71921
lowerback 3.61387 -2.02475 2.15336
upperback -6.86799 -2.3762 2.40248
thorax -9.26733 -1.2213 1.61955
lowerneck -9.65895 -10.2586 1.09312
upperneck 5.73117 -13.558 -3.9191
head 3.17436 -6.87119 -2.20951
rclavicle 1.81857e-014 -9.54166e-015
rhumerus -74.9726 21.6868 -96.1752
rradius 118.617
rwrist -13.8506
rhand 43.4032 -0.289175
rfingers 7.12502
rthumb 65.1491 -7.21589
lclavicle 1.81857e-014 -9.54166e-015
lhumerus -92.1159 -41.5067 116.399
lradius 118.9
lwrist 53.4203
lhand -0.624955 41.851
lfingers 7.12502
lthumb 24.9916 70.2364
rfemur -32.6113 -8.88832 21.9664
rtibia 43.1647
rfoot -16.0091 1.39697
rtoes -12.0933
lfemur -29.8151 11.2315 -17.4188
ltibia 45.4588
lfoot -21.0402 4.23245
ltoes -20.389
3254
root 0.508748 17.207 1.26884 13.1974 -5.1736 -2.7885
lowerback 3.64784 -2.08657 2.13557
upperback -6.88092 -2.45377 2.4753
thorax -9.29739 -1.25484 1.71794
lowerneck -9.70416 -10.3369 1.05171
upperneck 5.80832 -13.6577 -3.90055
head 3.21088 -6.92064 -2.20935
rclavicle -1.08586e-014 -2.0276e-014
rhumerus -75.3274 22.1672 -96.414
rradius 118.868
rwrist -13.0585
rhand 42.6587 -0.302082
rfingers 7.12502
rthumb 64.5591 -8.19627
lclavicle -1.08586e-014 -2.0276e-014
lhumerus -93.1553 -41.7446 117.089
lradius 119.374
lwrist 53.1632
lhand -1.49455 42.0719
lfingers 7.12502
lthumb 24.1581 70.5707
rfemur -32.5459 -9.031 22.092
rtibia 43.2683
rfoot -16.0523 1.47626
rtoes -11.755
lfemur -29.7955 11.3336 -17.2736
ltibia 45.5793
lfoot -21.078 4.07836
ltoes -20.4535
3255
root 0.499017 17.2009 1.27313 13.0675 -5.04754 -2.86549
lowerback 3.71677 -2.15346 2.1577
upperback -6.86008 -2.53575 2.52905
thorax -9.31351 -1.29397 1.77475
lowerneck -9.73745 -10.4085 1.07447
upperneck 5.7888 -13.7609 -3.83904
head 3.20997 -6.96863 -2.19951
rclavicle -8.82107e-016 1.19271e-015
rhumerus -75.7938 22.5501 -96.5914
rradius 119.176
rwrist -12.376
rhand 41.6062 -0.213774
rfingers 7.12502
rthumb 63.7126 -9.3982
lclavicle -8.82107e-016 1.19271e-015
lhumerus -94.1839 -41.882 117.666
lradius 119.892
lwrist 53.0119
lhand -2.40709 42.1541
lfingers 7.12502
lthumb 23.2829 70.7663
rfemur -32.4053 -9.20985 22.2179
rtibia 43.3319
rfoot -16.1084 1.57013
rtoes -11.7334
lfemur -29.6912 11.4095 -17.1084
ltibia 45.6635
lfoot -21.1388 3.87226
ltoes -20.2432
